<svg width="35" height="33" viewBox="0 0 35 33" fill="none" xmlns="http://www.w3.org/2000/svg">
<path d="M17.4983 0C27.165 0 35 6.10667 35 13.6417C35 21.175 27.165 27.2817 17.5 27.2817C16.5377 27.28 15.5764 27.2187 14.6217 27.0983L7.275 31.9033C6.44 32.345 6.145 32.2967 6.48833 31.215L7.975 25.085C3.175 22.6517 0 18.435 0 13.6417C0 6.10833 7.83333 0 17.5 0M27.3467 13.4333L29.7967 11.06C29.938 10.9132 30.0169 10.7172 30.0167 10.5134C30.0164 10.3096 29.9371 10.1138 29.7953 9.96735C29.6536 9.82087 29.4606 9.73512 29.2569 9.72815C29.0532 9.72118 28.8547 9.79355 28.7033 9.93L25.49 13.04V10.47C25.49 10.2614 25.4071 10.0613 25.2596 9.91374C25.1121 9.76622 24.912 9.68333 24.7033 9.68333C24.4947 9.68333 24.2946 9.76622 24.1471 9.91374C23.9995 10.0613 23.9167 10.2614 23.9167 10.47V14.7317C23.8889 14.8534 23.8889 14.9799 23.9167 15.1017V17.5C23.9167 17.7086 23.9995 17.9087 24.1471 18.0563C24.2946 18.2038 24.4947 18.2867 24.7033 18.2867C24.912 18.2867 25.1121 18.2038 25.2596 18.0563C25.4071 17.9087 25.49 17.7086 25.49 17.5V15.2283L26.2017 14.54L28.5817 17.9283C28.6411 18.0129 28.7166 18.085 28.8039 18.1404C28.8911 18.1958 28.9885 18.2335 29.0903 18.2513C29.1921 18.2691 29.2965 18.2667 29.3974 18.2441C29.4983 18.2216 29.5937 18.1794 29.6783 18.12C29.7629 18.0606 29.835 17.9851 29.8904 17.8978C29.9458 17.8105 29.9835 17.7132 30.0013 17.6114C30.0191 17.5095 30.0167 17.4052 29.9941 17.3043C29.9716 17.2034 29.9294 17.1079 29.87 17.0233L27.3467 13.4333ZM22.4167 16.64H19.9833V10.495C19.974 10.2928 19.8872 10.1021 19.7408 9.96229C19.5945 9.82252 19.3999 9.74453 19.1975 9.74453C18.9951 9.74453 18.8005 9.82252 18.6542 9.96229C18.5078 10.1021 18.421 10.2928 18.4117 10.495V17.4267C18.4117 17.86 18.7617 18.2133 19.1967 18.2133H22.4167C22.6253 18.2133 22.8254 18.1305 22.9729 17.9829C23.1205 17.8354 23.2033 17.6353 23.2033 17.4267C23.2033 17.218 23.1205 17.0179 22.9729 16.8704C22.8254 16.7229 22.6253 16.64 22.4167 16.64ZM12.655 14.8217L13.815 11.975L14.8783 14.82L12.655 14.8217ZM16.86 15.6333L16.8633 15.6067C16.8628 15.4085 16.7871 15.2179 16.6517 15.0733L14.9083 10.4067C14.8353 10.1843 14.696 9.98949 14.5093 9.84832C14.3226 9.70716 14.0972 9.62634 13.8633 9.61667C13.6279 9.61656 13.398 9.68766 13.2038 9.82062C13.0096 9.95358 12.8601 10.1422 12.775 10.3617L10.005 17.1533C9.9261 17.3465 9.92716 17.5631 10.008 17.7555C10.0888 17.9479 10.2427 18.1003 10.4358 18.1792C10.629 18.2581 10.8456 18.257 11.038 18.1762C11.2304 18.0954 11.3828 17.9415 11.4617 17.7483L12.015 16.3933H15.465L15.9617 17.7267C15.9955 17.8263 16.0491 17.9182 16.1191 17.9968C16.1891 18.0754 16.2742 18.1391 16.3693 18.1842C16.4644 18.2293 16.5676 18.2549 16.6728 18.2594C16.778 18.2639 16.883 18.2473 16.9816 18.2105C17.0802 18.1736 17.1704 18.1174 17.2469 18.0451C17.3234 17.9728 17.3846 17.8858 17.4269 17.7894C17.4692 17.693 17.4917 17.5891 17.4931 17.4839C17.4945 17.3786 17.4747 17.2742 17.435 17.1767L16.86 15.6333ZM11.3217 10.5033C11.3221 10.4 11.3021 10.2977 11.2628 10.2022C11.2236 10.1066 11.1658 10.0198 11.0928 9.94669C11.0199 9.87357 10.9332 9.81561 10.8377 9.77613C10.7423 9.73666 10.64 9.71645 10.5367 9.71667H5.12833C4.9197 9.71667 4.7196 9.79955 4.57208 9.94708C4.42455 10.0946 4.34167 10.2947 4.34167 10.5033C4.34167 10.712 4.42455 10.9121 4.57208 11.0596C4.7196 11.2071 4.9197 11.29 5.12833 11.29H7.06167V17.5167C7.06167 17.7253 7.14455 17.9254 7.29208 18.0729C7.4396 18.2205 7.6397 18.3033 7.84833 18.3033C8.05697 18.3033 8.25706 18.2205 8.40459 18.0729C8.55212 17.9254 8.635 17.7253 8.635 17.5167V11.29H10.535C10.6384 11.2904 10.7409 11.2704 10.8366 11.231C10.9322 11.1916 11.0191 11.1337 11.0922 11.0606C11.1654 10.9874 11.2233 10.9005 11.2627 10.8049C11.3021 10.7093 11.3221 10.6068 11.3217 10.5033Z" fill="black"/>
</svg>
