<svg width="34" height="35" viewBox="0 0 34 35" fill="none" xmlns="http://www.w3.org/2000/svg">
<path opacity="0.987" fill-rule="evenodd" clip-rule="evenodd" d="M14.8947 0.151875C16.7072 -0.050625 17.7797 -0.050625 19.7272 0.151875C23.1745 0.662113 26.3702 2.25559 28.8522 4.70188C27.175 6.28721 25.5198 7.8957 23.8872 9.52687C20.7605 6.87687 17.2705 6.26521 13.4172 7.69188C10.5905 8.99188 8.62219 11.0985 7.51219 14.0119C5.69829 12.6615 3.90802 11.2796 2.14219 9.86687C2.01947 9.80228 1.87931 9.77863 1.74219 9.79937C4.54719 4.39104 8.93052 1.17437 14.8922 0.149375" fill="#F44336"/>
<path opacity="0.997" fill-rule="evenodd" clip-rule="evenodd" d="M1.74063 9.79899C1.8823 9.77732 2.01646 9.79982 2.14313 9.86649C3.90896 11.2792 5.69923 12.6611 7.51313 14.0115C7.22769 15.1466 7.04776 16.3057 6.97563 17.474C7.0373 18.604 7.21646 19.7132 7.51313 20.8015L1.87563 25.289C-0.57937 20.159 -0.62437 14.9957 1.74063 9.79899Z" fill="#FFC107"/>
<path opacity="0.999" fill-rule="evenodd" clip-rule="evenodd" d="M28.5872 30.7248C26.8318 29.1768 24.9942 27.7247 23.0822 26.3748C24.9989 25.0215 26.1622 23.1648 26.5722 20.8048H17.1797V14.2823C22.5964 14.2373 28.0105 14.2832 33.4222 14.4198C34.4489 19.9948 33.263 25.0215 29.8647 29.4998C29.4606 29.9294 29.0326 30.3383 28.5872 30.7248Z" fill="#448AFF"/>
<path opacity="0.993" fill-rule="evenodd" clip-rule="evenodd" d="M7.5125 20.8047C9.5625 25.8997 13.3208 28.278 18.7875 27.9397C20.3221 27.762 21.7934 27.2259 23.0825 26.3747C24.9958 27.728 26.8308 29.178 28.5875 30.7247C25.8041 33.2258 22.2553 34.7099 18.52 34.9347C17.6714 35.0025 16.8186 35.0025 15.97 34.9347C9.60667 34.1847 4.90833 30.9697 1.875 25.2897L7.5125 20.8047Z" fill="#43A047"/>
</svg>
